{
    "asset" : {
        "generator" : "Khronos glTF Blender I/O v1.7.33",
        "version" : "2.0"
    },
    "scene" : 0,
    "scenes" : [
        {
            "extras" : {
                "print_3d" : {}
            },
            "name" : "Scene",
            "nodes" : [
                4
            ]
        }
    ],
    "nodes" : [
        {
            "extras" : {
                "sparkar_optimization" : {}
            },
            "mesh" : 0,
            "name" : "\u0420\u0423\u041a\u041e\u042f\u0422\u041a\u0410",
            "scale" : [
                13.499863624572754,
                11.07264232635498,
                13.499862670898438
            ],
            "translation" : [
                -15.8291654586792,
                3.355034828186035,
                -0.13138273358345032
            ]
        },
        {
            "children" : [
                0
            ],
            "name" : "g"
        },
        {
            "children" : [
                1
            ],
            "name" : "Collada visual scene group",
            "rotation" : [
                0.7071068286895752,
                0,
                0,
                0.7071068286895752
            ]
        },
        {
            "children" : [
                2
            ],
            "name" : "RootNode (model correction matrix)"
        },
        {
            "children" : [
                3
            ],
            "name" : "\u0410\u041b\u0415\u0411\u0410\u0420\u0414\u0410",
            "rotation" : [
                -0.7071068286895752,
                0,
                0,
                0.7071068286895752
            ]
        }
    ],
    "materials" : [
        {
            "doubleSided" : true,
            "emissiveFactor" : [
                1,
                1,
                1
            ],
            "emissiveTexture" : {
                "index" : 0
            },
            "name" : "defaultMat",
            "normalTexture" : {
                "index" : 1
            },
            "occlusionTexture" : {
                "index" : 2
            },
            "pbrMetallicRoughness" : {
                "baseColorTexture" : {
                    "index" : 3
                },
                "metallicRoughnessTexture" : {
                    "index" : 2
                }
            }
        }
    ],
    "meshes" : [
        {
            "name" : "defaultMaterial.001",
            "primitives" : [
                {
                    "attributes" : {
                        "POSITION" : 0,
                        "NORMAL" : 1,
                        "TANGENT" : 2,
                        "TEXCOORD_0" : 3
                    },
                    "indices" : 4,
                    "material" : 0
                }
            ]
        }
    ],
    "textures" : [
        {
            "sampler" : 0,
            "source" : 0
        },
        {
            "sampler" : 0,
            "source" : 1
        },
        {
            "sampler" : 0,
            "source" : 2
        },
        {
            "sampler" : 0,
            "source" : 3
        }
    ],
    "images" : [
        {
            "mimeType" : "image/jpeg",
            "name" : "defaultMat_emissive",
            "uri" : "defaultMat_emissive.jpg"
        },
        {
            "mimeType" : "image/png",
            "name" : "defaultMat_normal",
            "uri" : "defaultMat_normal.png"
        },
        {
            "mimeType" : "image/png",
            "name" : "defaultMat_metallicRoughness",
            "uri" : "defaultMat_metallicRoughness.png"
        },
        {
            "mimeType" : "image/jpeg",
            "name" : "defaultMat_baseColor",
            "uri" : "defaultMat_baseColor.jpg"
        }
    ],
    "accessors" : [
        {
            "bufferView" : 0,
            "componentType" : 5126,
            "count" : 5314,
            "max" : [
                0.20420284569263458,
                0.7329567670822144,
                0.029938340187072754
            ],
            "min" : [
                -0.19117529690265656,
                -1.0501961708068848,
                -0.0169597826898098
            ],
            "type" : "VEC3"
        },
        {
            "bufferView" : 1,
            "componentType" : 5126,
            "count" : 5314,
            "type" : "VEC3"
        },
        {
            "bufferView" : 2,
            "componentType" : 5126,
            "count" : 5314,
            "type" : "VEC4"
        },
        {
            "bufferView" : 3,
            "componentType" : 5126,
            "count" : 5314,
            "type" : "VEC2"
        },
        {
            "bufferView" : 4,
            "componentType" : 5123,
            "count" : 28029,
            "type" : "SCALAR"
        }
    ],
    "bufferViews" : [
        {
            "buffer" : 0,
            "byteLength" : 63768,
            "byteOffset" : 0
        },
        {
            "buffer" : 0,
            "byteLength" : 63768,
            "byteOffset" : 63768
        },
        {
            "buffer" : 0,
            "byteLength" : 85024,
            "byteOffset" : 127536
        },
        {
            "buffer" : 0,
            "byteLength" : 42512,
            "byteOffset" : 212560
        },
        {
            "buffer" : 0,
            "byteLength" : 56058,
            "byteOffset" : 255072
        }
    ],
    "samplers" : [
        {
            "magFilter" : 9729,
            "minFilter" : 9987
        }
    ],
    "buffers" : [
        {
            "byteLength" : 311132,
            "uri" : "alebarda.bin"
        }
    ]
}
